{"title":"The.Way.Back.720p.BRRip.x264.Feel-Free","uid":6292503,"size":3366270426,"categoryP":"video","categoryS":"hd___movies","magnet":"?xt=urn:btih:ad5f0465fbaf3a72767c849c2f0418d47b3ab65d&amp;dn=The.Way.Back.720p.BRRip.x264.Feel-Free&amp;tr=udp%3A%2F%2Ftracker.openbittorrent.com%3A80&amp;tr=udp%3A%2F%2Fopen.demonii.com%3A1337&amp;tr=udp%3A%2F%2Ftracker.coppersurfer.tk%3A6969&amp;tr=udp%3A%2F%2Fexodus.desync.com%3A6969","seeders":1,"leechers":1,"uploader":".BONE.","files":9,"time":1301871918,"description":"Genre:Drama\nLanguage:English\n &lt;a href=&quot;\nhttp://www.imdb.com/title/tt1023114/&quot; rel=&quot;nofollow&quot; target=&quot;_NEW&quot;&gt;\nhttp://www.imdb.com/title/tt1023114/&lt;/a&gt;\n\nSource:1080p Bluray x264-CBGB\nSubtitles:Romana\n\n\nFormat : MPEG-4\nFormat profile : Base Media\nCodec ID : isom\nFile size : 3.13 GiB\nDuration : 2h 13mn\nOverall bit rate : 3 366 Kbps\n\n\nVideo\nFormat profile : &lt;a class=&quot;__cf_email__&quot; href=&quot;/cdn-cgi/l/email-protection&quot; data-cfemail=&quot;2068494748606c140e11&quot;&gt;[email&amp;#160;protected]&lt;/a&gt;&lt;script cf-hash='f9e31' type=&quot;text/javascript&quot;&gt;\n/* &lt;![CDATA[ */!function(){try{var t=&quot;currentScript&quot;in document?document.currentScript:function(){for(var t=document.getElementsByTagName(&quot;script&quot;),e=t.length;e--;)if(t[e].getAttribute(&quot;cf-hash&quot;))return t[e]}();if(t&amp;&amp;t.previousSibling){var e,r,n,i,c=t.previousSibling,a=c.getAttribute(&quot;data-cfemail&quot;);if(a){for(e=&quot;&quot;,r=parseInt(a.substr(0,2),16),n=2;a.length-n;n+=2)i=parseInt(a.substr(n,2),16)^r,e+=String.fromCharCode(i);e=document.createTextNode(e),c.parentNode.replaceChild(e,c)}}}catch(u){}}();/* ]]&gt; */&lt;/script&gt;\nFormat settings, CABAC : Yes\nFormat settings, ReFrames : 3 frames\nCodec ID : avc1\nCodec ID/Info : Advanced Video Coding\nDuration : 2h 13mn\nBit rate mode : Variable\nBit rate : 3 000 Kbps\nMaximum bit rate : 20.0 Mbps\nWidth : 1 280 pixels\nHeight : 544 pixels\nDisplay aspect ratio : 2.35:1\nFrame rate mode : Constant\nFrame rate : 23.976 fps\nColor space : YUV\nChroma subsampling : 4:2:0\nBit depth : 8 bits\nScan type : Progressive\nBits/(Pixel*Frame) : 0.180\nStream size : 2.71 GiB (87%)\nWriting library : x264\n\n\nAudio\nID : 2\nFormat : AAC\nFormat/Info : Advanced Audio Codec\nFormat version : Version 4\nFormat profile : LC\nFormat settings, SBR : No\nCodec ID : 40\nDuration : 2h 13mn\nBit rate mode : Variable\nBit rate : 444 Kbps\nMaximum bit rate : 580 Kbps\nChannel(s) : 6 channels\nChannel positions : Front: L C R, Side: L R, LFE\nSampling rate : 48.0 KHz\nStream size : 423 MiB (13%)\n\n\nPlot:\nSiberian gulag escapees walk 4000 miles overland to freedom in India\n &lt;a href=&quot;\nhttp://www.pix2links.com/images/16732726332408196919.png&quot; rel=&quot;nofollow&quot; target=&quot;_NEW&quot;&gt;\nhttp://www.pix2links.com/images/16732726332408196919.png&lt;/a&gt;\n &lt;a href=&quot;\nhttp://www.pix2links.com/images/44095013123900300556.png&quot; rel=&quot;nofollow&quot; target=&quot;_NEW&quot;&gt;\nhttp://www.pix2links.com/images/44095013123900300556.png&lt;/a&gt;\n &lt;a href=&quot;\nhttp://www.pix2links.com/images/75562072481893013754.png&quot; rel=&quot;nofollow&quot; target=&quot;_NEW&quot;&gt;\nhttp://www.pix2links.com/images/75562072481893013754.png&lt;/a&gt;\n &lt;a href=&quot;\nhttp://www.pix2links.com/images/85399751428272307133.png&quot; rel=&quot;nofollow&quot; target=&quot;_NEW&quot;&gt;\nhttp://www.pix2links.com/images/85399751428272307133.png&lt;/a&gt;\n\n","torrent":{"xt":"urn:btih:ad5f0465fbaf3a72767c849c2f0418d47b3ab65d","amp;dn":"The.Way.Back.720p.BRRip.x264.Feel-Free","amp;tr":["udp%3A%2F%2Ftracker.openbittorrent.com%3A80","udp%3A%2F%2Fopen.demonii.com%3A1337","udp%3A%2F%2Ftracker.coppersurfer.tk%3A6969","udp%3A%2F%2Fexodus.desync.com%3A6969"],"infoHash":"ad5f0465fbaf3a72767c849c2f0418d47b3ab65d","infoHashBuffer":{"type":"Buffer","data":[173,95,4,101,251,175,58,114,118,124,132,156,47,4,24,212,123,58,182,93]},"announce":[],"urlList":[]}}